# xmcd CD database file
# Copyright (C) 1995-1998 Ti Kan
#
# Track frame offsets:
#	150
#	12119
#	22381
#	39916
#	48744
#	65382
#	82523
#	94349
#	108058
#	114802
#	128551
#	139807
#	149359
#	166463
#	175663
#	196019
#	205962
#	216548
#	228236
#	245877
#
# Disc length: 3519 seconds
#
# Revision: 1
# Processed by: cddbd v1.4PL0 Copyright (c) Steve Scherf et al.
# Submitted via: CDex 1.30Release
#
DISCID=110dbd14
DTITLE=Neely, Bill - Texas Law and Justice
DYEAR=1974
DGENRE=Country
TTITLE0=Satan's Burning Hell
TTITLE1=Big Yellow Moon Over Texas
TTITLE2=Texas Law And Justice
TTITLE3=Pflugerville Boogie
TTITLE4=Crying The Blues Over You
TTITLE5=On A Blackland Farm
TTITLE6=Austin Breakdown
TTITLE7=A Soldier's Thoughts
TTITLE8=No Pockets In A Shroud
TTITLE9=Lonely Mansion
TTITLE10=Deep Elm Blues
TTITLE11=Rock and Roll Baby
TTITLE12=Skid Row
TTITLE13=Don't Waste Your Tears Over Me
TTITLE14=Blues On Ellem
TTITLE15=Austin Breakdown #2
TTITLE16=Never Left The Lone Star State
TTITLE17=I'm A Truck Drivin' Daddy
TTITLE18=My Tennessee Home
TTITLE19=Sun Setting Time In Your Life
EXTD=YEAR: 1974 ID3G:   2
EXTT0=
EXTT1=
EXTT2=
EXTT3=
EXTT4=
EXTT5=
EXTT6=
EXTT7=
EXTT8=
EXTT9=
EXTT10=
EXTT11=
EXTT12=
EXTT13=
EXTT14=
EXTT15=
EXTT16=
EXTT17=
EXTT18=
EXTT19=
PLAYORDER=
